<svg id="SvgjsSvg1012" width="288" height="288" xmlns="http://www.w3.org/2000/svg" version="1.1" xmlns:xlink="http://www.w3.org/1999/xlink" xmlns:svgjs="http://svgjs.com/svgjs"><defs id="SvgjsDefs1013"></defs><g id="SvgjsG1014"><svg xmlns="http://www.w3.org/2000/svg" viewBox="0 0 32 32" width="288" height="288"><path d="M27.59,5.67c-.53-.11-1.06-.18-1.59-.27V4.86a2.75,2.75,0,0,0-.93-2.06,2.79,2.79,0,0,0-2.2-.67A11.38,11.38,0,0,0,16,5.55,11.38,11.38,0,0,0,9.13,2.13a2.79,2.79,0,0,0-2.2.67A2.75,2.75,0,0,0,6,4.86V5.4c-.53.09-1.06.16-1.59.27A3,3,0,0,0,2,8.61V25.55a3,3,0,0,0,1,2.26,3,3,0,0,0,2.37.71,19.3,19.3,0,0,1,10.21,1.4,1,1,0,0,0,.78,0,19.3,19.3,0,0,1,10.21-1.4,3,3,0,0,0,3.4-3V8.61A3,3,0,0,0,27.59,5.67ZM23.13,4.11a.78.78,0,0,1,.62.19.75.75,0,0,1,.25.56V22.17a1,1,0,0,1-.78,1A11.93,11.93,0,0,0,17,26.29V7.4A9.61,9.61,0,0,1,23.13,4.11ZM8,4.86a.77.77,0,0,1,.76-.76h.11A9.61,9.61,0,0,1,15,7.4V26.29a11.93,11.93,0,0,0-6.22-3.14,1,1,0,0,1-.78-1ZM5.13,26.54a1,1,0,0,1-1.13-1V8.61a1,1,0,0,1,.8-1c.4-.08.8-.14,1.2-.2V22.17a3,3,0,0,0,2.45,2.95,9.78,9.78,0,0,1,4.07,1.73A21,21,0,0,0,5.13,26.54Zm22.87-1a1,1,0,0,1-1.13,1,21,21,0,0,0-7.39.31,9.78,9.78,0,0,1,4.07-1.73A3,3,0,0,0,26,22.17V7.43c.4.06.8.12,1.21.2a1,1,0,0,1,.79,1Z" fill="#821250" class="svgShape color000000-0 selectable"></path></svg></g></svg>