<svg xmlns="http://www.w3.org/2000/svg" id="Catalog" viewBox="0 0 512 512">
  <path d="m493.994,407.65c-83.097,1.436-155.735,28.52-203.068,75.308V133.53c48.923-60.39,126.044-91.643,203.068-82.524v356.644h0Zm14.016,7.315V44.497c-.175-3.311-2.669-6.07-6.015-6.553-41.693-6.078-84.447-1.07-123.634,14.484-38.127,15.14-71.867,39.871-97.799,71.63h-37.837c54.129-64.95,113.416-97.769,190.247-105.66l26.51,13.665c3.422,1.774,7.616.429,9.399-3.008,1.784-3.437.434-7.659-2.988-9.433l-28.342-14.619c-1.205-.617-2.555-.877-3.904-.747-82.278,7.948-145.276,42.633-202.635,111.974-10.411-29.431-32.149-56.346-62.323-76.841C135.335,16.712,95.57,4.223,56.721,4.223c-3.905,0-7.037,3.138-7.037,7.003v13.351c0,3.866,3.133,6.999,7.037,6.999,3.856,0,6.989-3.133,6.989-6.999v-6.208c59.045,2.424,115.729,35.239,143.107,79.757-21.401-19.429-46.176-34.979-73.168-45.698-39.187-15.554-81.941-20.567-123.634-14.484-3.47.501-6.025,3.451-6.025,6.926v369.716c0,3.875,3.133,7.004,6.989,7.004,89.605,0,166.774,30.506,211.744,83.71,1.35,1.581,3.278,2.477,5.35,2.477h55.864c2.072,0,4.001-.897,5.35-2.477,44.971-53.204,122.14-83.71,211.696-83.71,3.776,0,6.831-2.926,7.027-6.625h0Zm-489.995-7.315V51.006c77.024-9.12,154.145,22.133,203.068,82.524v349.429c-47.333-46.788-119.971-73.872-203.068-75.308h0ZM235.062,138.061h41.886v355.719h-41.886V138.061Z" fill="#821250" fill-rule="evenodd" stroke-width="0" class="color3a4186 svgShape"></path>
  <path d="m57.395,131.847c49.068,1.504,92.834,17.217,124.261,44.663v47.718c-35.861-23.136-76.687-36.854-124.261-41.766v-50.615h0Zm-7.615,63.962c52.779,4.516,96.835,20.008,134.817,47.347,1.205.872,2.651,1.321,4.097,1.321,1.06,0,2.169-.256,3.181-.771,2.314-1.195,3.808-3.605,3.808-6.232v-64.102c0-1.971-.819-3.851-2.314-5.181-35.62-32.371-86.375-50.292-142.963-50.461-1.88.005-3.615.732-4.965,2.043-1.301,1.316-2.024,3.099-2.024,4.955v64.106c0,3.634,2.747,6.661,6.362,6.975Z" fill-rule="evenodd" stroke-width="0" fill="#a8427d" class="color509be6 svgShape"></path>
  <path d="m192.597,377.337c-45.164-30.371-94.183-47.839-141.805-50.519-3.856-.197-7.182,2.738-7.375,6.599-.241,3.861,2.747,7.163,6.603,7.379,45.067,2.54,91.677,19.193,134.768,48.152,1.157.81,2.506,1.2,3.904,1.2,2.217,0,4.435-1.089,5.784-3.099,2.169-3.201,1.301-7.553-1.88-9.712h0Zm0-45.738c3.181,2.159,4.049,6.507,1.88,9.717-1.35,2.01-3.567,3.089-5.784,3.089-1.398,0-2.747-.376-3.904-1.19-43.091-28.959-89.701-45.607-134.768-48.147-3.856-.222-6.845-3.533-6.603-7.389.193-3.851,3.519-6.801,7.375-6.589,47.622,2.675,96.642,20.148,141.805,50.509h0Zm0-45.732c-45.164-30.366-94.183-47.834-141.805-50.514-3.856-.226-7.182,2.738-7.375,6.594-.241,3.861,2.747,7.167,6.603,7.384,45.067,2.535,91.677,19.189,134.768,48.157,1.157.8,2.506,1.191,3.904,1.191,2.217,0,4.435-1.089,5.784-3.09,2.169-3.21,1.301-7.562-1.88-9.722Z" fill="#821250" fill-rule="evenodd" stroke-width="0" class="color3a4186 svgShape"></path>
  <path d="M351.129 179.72c-8.724 4.275-17.304 9.057-25.643 14.291v-35.914c7.857-6.541 16.436-12.455 25.643-17.675v39.298h0Zm10.701-56.843c-2.024-1.277-4.579-1.407-6.748-.347-15.135 7.413-29.016 16.508-41.163 27.031-1.543 1.33-2.41 3.263-2.41 5.293v52.206c0 2.608 1.446 4.999 3.76 6.204 1.012.535 2.121.795 3.23.795 1.398 0 2.796-.424 4-1.263 12.243-8.56 25.257-16.07 38.609-22.322 2.458-1.152 4.049-3.625 4.049-6.338v-55.315c0-2.42-1.253-4.661-3.326-5.943ZM466.038 102.894c-26.703 1.504-53.695 7.669-80.254 18.331-3.567 1.441-5.302 5.514-3.904 9.1 1.108 2.733 3.76 4.396 6.507 4.396.868 0 1.783-.164 2.603-.506 25.112-10.088 50.659-15.92 75.819-17.342 3.904-.217 6.844-3.523 6.603-7.384-.193-3.856-3.519-6.816-7.375-6.594h0Zm0 195.766c-26.703 1.509-53.695 7.669-80.254 18.33-3.567 1.436-5.302 5.519-3.904 9.11 1.108 2.728 3.76 4.386 6.507 4.386.868 0 1.783-.159 2.603-.511 25.112-10.088 50.659-15.916 75.819-17.338 3.904-.217 6.844-3.519 6.603-7.38-.193-3.861-3.519-6.82-7.375-6.598h0Zm0 38.339c-26.703 1.509-53.695 7.669-80.254 18.33-3.567 1.441-5.302 5.519-3.904 9.1 1.108 2.742 3.76 4.401 6.507 4.401.868 0 1.783-.174 2.603-.511 25.112-10.093 50.659-15.92 75.819-17.338 3.904-.222 6.844-3.523 6.603-7.384-.193-3.861-3.519-6.82-7.375-6.599h0Zm0-97.881c-26.703 1.504-53.695 7.669-80.254 18.326-3.567 1.441-5.302 5.519-3.904 9.105 1.108 2.733 3.76 4.391 6.507 4.391.868 0 1.783-.164 2.603-.506 25.112-10.088 50.659-15.92 75.819-17.337 3.904-.222 6.844-3.523 6.603-7.384-.193-3.861-3.519-6.806-7.375-6.594h0Zm0-38.339c-26.703 1.504-53.695 7.669-80.254 18.33-3.567 1.437-5.302 5.514-3.904 9.1 1.108 2.733 3.76 4.396 6.507 4.396.868 0 1.783-.164 2.603-.511 25.112-10.088 50.659-15.92 75.819-17.338 3.904-.222 6.844-3.523 6.603-7.384-.193-3.861-3.519-6.806-7.375-6.594h0Zm0-59.547c-26.703 1.504-53.695 7.669-80.254 18.331-3.567 1.436-5.302 5.514-3.904 9.1 1.108 2.733 3.76 4.396 6.507 4.396.868 0 1.783-.164 2.603-.506 25.112-10.088 50.659-15.925 75.819-17.342 3.904-.217 6.844-3.523 6.603-7.384-.193-3.861-3.519-6.811-7.375-6.594ZM351.129 277.61c-8.724 4.271-17.304 9.047-25.643 14.287v-35.914c7.857-6.541 16.436-12.46 25.643-17.675v39.303h0Zm10.701-56.847c-2.024-1.277-4.579-1.412-6.748-.347-15.135 7.413-29.016 16.504-41.163 27.031-1.543 1.33-2.41 3.258-2.41 5.293v52.201c0 2.607 1.446 5.008 3.76 6.208 1.012.53 2.121.791 3.23.791 1.398 0 2.796-.419 4-1.258 12.243-8.565 25.257-16.07 38.609-22.322 2.458-1.152 4.049-3.62 4.049-6.343v-55.315c0-2.415-1.253-4.661-3.326-5.938ZM351.129 375.486c-8.724 4.271-17.304 9.062-25.643 14.291v-35.909c7.857-6.541 16.436-12.46 25.643-17.68v39.298h0Zm10.701-56.838c-2.024-1.282-4.579-1.408-6.748-.352-15.135 7.413-29.016 16.514-41.163 27.031-1.543 1.33-2.41 3.258-2.41 5.292v52.211c0 2.608 1.446 4.998 3.76 6.208 1.012.53 2.121.79 3.23.79 1.398 0 2.796-.429 4-1.272 12.243-8.551 25.257-16.056 38.609-22.317 2.458-1.152 4.049-3.62 4.049-6.338v-55.31c0-2.424-1.253-4.661-3.326-5.943Z" fill-rule="evenodd" stroke-width="0" fill="#a8427d" class="color509be6 svgShape"></path>
</svg>
