<svg xmlns="http://www.w3.org/2000/svg" viewBox="0 0 64 64" id="WineBarrel">
  <path d="M57 24.308V10a1 1 0 0 0-1-1h-6a1 1 0 0 0-1 1v3.146a26 26 0 1 0-35.773 35.891l-2.553 1.824A8.793 8.793 0 0 0 7 58a1 1 0 0 0 1 1h35v1a3 3 0 0 0 3 3h14a3 3 0 0 0 3-3V33.325a9.762 9.762 0 0 0-6-9.017ZM60.639 31H45.361a7.757 7.757 0 0 1 4.955-5.051A1 1 0 0 0 51 25v-2h4v2a1 1 0 0 0 .684.949A7.757 7.757 0 0 1 60.639 31ZM61 33.325V55H45V33.325c0-.11.021-.216.026-.325h15.948c.005.109.026.215.026.325ZM10.314 16h33.38a19.866 19.866 0 0 1 3.233 9.518c-.207.155-.41.312-.6.482H7.051a19.858 19.858 0 0 1 3.263-10Zm1.518-2a19.975 19.975 0 0 1 30.374 0Zm32.752 14A9.749 9.749 0 0 0 43 33.325V38h-9v-1a1 1 0 0 0-1-1h-3v-2h2v-2H22v2h2v2h-3a1 1 0 0 0-1 1v1h-9.686a19.858 19.858 0 0 1-3.263-10ZM26 42h2v2h-2Zm-4-2v-2h10v2Zm6-6v2h-2v-2Zm-8 6v1a1 1 0 0 0 1 1h3v3a1 1 0 0 0 1 1h4a1 1 0 0 0 1-1v-3h3a1 1 0 0 0 1-1v-1h8.187a19.954 19.954 0 0 1-30.355 0Zm23 10.629-2.216-1.583A25.769 25.769 0 0 0 43 47.5ZM55 21h-4v-6h4Zm0-10v2h-4v-2ZM3 27a24 24 0 0 1 46-9.592v6.9c-.061.025-.114.062-.174.088A21.985 21.985 0 1 0 43 42.09v2.768A23.975 23.975 0 0 1 3 27Zm6.075 30a6.787 6.787 0 0 1 2.761-4.511l3.306-2.362a25.989 25.989 0 0 0 23.732.012l3.29 2.35a6.767 6.767 0 0 1 .836.722V57ZM60 61H46a1 1 0 0 1-1-1v-3h16v3a1 1 0 0 1-1 1Z" fill="#821250" class="color000000 svgShape"></path>
  <path d="M48 53h10a1 1 0 0 0 1-1V36a1 1 0 0 0-1-1H48a1 1 0 0 0-1 1v16a1 1 0 0 0 1 1Zm1-16h8v14h-8Z" fill="#821250" class="color000000 svgShape"></path>
  <path d="M51 39h4v2h-4zM51 43h4v2h-4zM51 47h4v2h-4z" fill="#821250" class="color000000 svgShape"></path>
</svg>
