<svg id="SvgjsSvg1001" width="288" height="288" xmlns="http://www.w3.org/2000/svg" version="1.1" xmlns:xlink="http://www.w3.org/1999/xlink" xmlns:svgjs="http://svgjs.com/svgjs"><defs id="SvgjsDefs1002"></defs><g id="SvgjsG1008"><svg xmlns="http://www.w3.org/2000/svg" enable-background="new 0 0 70 70" viewBox="0 0 70 70" width="288" height="288"><path d="M67,37.8115234h-5.0166016v-6.3037109c0-7.3378906-2.2109375-9.2958984-4.1621094-11.0234375l-0.2626953-0.2333984	c-1.4970703-1.3320312-2.3554688-3.2724609-2.3554688-5.3232422v-1.328125
	c0.000061-0.003418,0.0019531-0.0063477,0.0019531-0.0097656s-0.0018921-0.0063477-0.0019531-0.0097656V7.1120605
	c0.8575439-0.4554443,1.4492188-1.3476562,1.4492188-2.3845215c0-1.4941406-1.2148438-2.7089844-2.7089844-2.7089844h-8.4404297
	c-1.4941406,0-2.7089844,1.2148438-2.7089844,2.7089844c0,1.0368652,0.5917358,1.9289551,1.4492188,2.3845215v6.4632568
	c-0.000061,0.005127-0.0029297,0.0093994-0.0029297,0.0145264s0.0028687,0.0093994,0.0029297,0.0145264v0.6134033
	c0,1.9365234-0.8339844,3.7763672-2.3554688,5.1064453c-2.2802734,1.9863281-4.4345703,3.8623047-4.4345703,12.1835938v6.3037109
	h-4.90625v-6.3037109c0-7.3378906-2.2109375-9.2958984-4.1621094-11.0234375l-0.2626953-0.2333984
	c-1.4970703-1.3320312-2.3554688-3.2724609-2.3554688-5.3232422v-1.328125
	c0.000061-0.003418,0.0019531-0.0063477,0.0019531-0.0097656s-0.0018921-0.0063477-0.0019531-0.0097656V7.1120605
	c0.8575439-0.4554443,1.4492188-1.3476562,1.4492188-2.3845215c0-1.4941406-1.2148438-2.7089844-2.7089844-2.7089844h-8.4404297
	c-1.4941406,0-2.7089844,1.2148438-2.7089844,2.7089844c0,1.0368652,0.5917358,1.9289551,1.4492188,2.3845215v6.4632568
	c-0.000061,0.005127-0.0029297,0.0093994-0.0029297,0.0145264s0.0028687,0.0093994,0.0029297,0.0145264v0.6134033
	c0,1.9365234-0.8339844,3.7763672-2.3554688,5.1064453c-2.2802734,1.9863281-4.4345703,3.8623047-4.4345703,12.1835938v6.3037109H3
	c-0.5527344,0-1,0.4472656-1,1v28.1699219c0,0.5527344,0.4472656,1,1,1h64c0.5527344,0,1-0.4472656,1-1V38.8115234
	C68,38.2587891,67.5527344,37.8115234,67,37.8115234z M53.203125,7.4384766v5.1513672h-6.9599609V7.4384766H53.203125z
	 M45.5029297,4.0185547h8.4404297c0.390625,0,0.7089844,0.3183594,0.7089844,0.7089844
	c0,0.3916016-0.3183594,0.7099609-0.7089844,0.7099609h-8.4404297c-0.390625,0-0.7089844-0.3183594-0.7089844-0.7099609
	C44.7939453,4.3369141,45.1123047,4.0185547,45.5029297,4.0185547z M39.453125,31.5078125
	c0-7.4101562,1.7373047-8.9238281,3.8183594-10.7363281c1.7947998-1.5693359,2.8500366-3.8061523,2.9517212-6.1816406h6.9799194
	v0.3378906c0,2.6210938,1.1025391,5.1064453,3.0244141,6.8164062l0.2675781,0.2373047
	c1.7939453,1.5888672,3.4882812,3.0888672,3.4882812,9.5263672v6.3037109h-4.8231201
	c0.0262451-0.3376465,0.0428467-0.6779785,0.0428467-1.0205078c0-4.7890625-2.4111328-8.5400391-5.4902344-8.5400391
	c-3.078125,0-5.4892578,3.7509766-5.4892578,8.5400391c0,0.3425293,0.0166016,0.6828613,0.0428467,1.0205078H39.453125V31.5078125z
	 M46.2733765,37.8115234c-0.0308838-0.3365479-0.0497437-0.6768799-0.0497437-1.0205078
	c0-3.484375,1.6308594-6.5400391,3.4892578-6.5400391c1.859375,0,3.4902344,3.0556641,3.4902344,6.5400391
	c0,0.3436279-0.0188599,0.68396-0.0497437,1.0205078H46.2733765z M23.7666016,7.4384766v5.1513672h-6.9599609V7.4384766H23.7666016z
	 M16.0664062,4.0185547h8.4404297c0.390625,0,0.7089844,0.3183594,0.7089844,0.7089844
	c0,0.3916016-0.3183594,0.7099609-0.7089844,0.7099609h-8.4404297c-0.390625,0-0.7089844-0.3183594-0.7089844-0.7099609
	C15.3574219,4.3369141,15.6757812,4.0185547,16.0664062,4.0185547z M10.0166016,31.5078125
	c0-7.4101562,1.7373047-8.9238281,3.8183594-10.7363281c1.7947998-1.5693359,2.8500366-3.8061523,2.9517212-6.1816406h6.9799194
	v0.3378906c0,2.6210938,1.1025391,5.1064453,3.0244141,6.8164062l0.2675781,0.2373047
	c1.7939453,1.5888672,3.4882812,3.0888672,3.4882812,9.5263672v6.3037109h-4.8231201
	c0.0262451-0.3376465,0.0428467-0.6779785,0.0428467-1.0205078c0-4.7890625-2.4111328-8.5400391-5.4902344-8.5400391
	c-3.078125,0-5.4892578,3.7509766-5.4892578,8.5400391c0,0.3425293,0.0166016,0.6828613,0.0428467,1.0205078h-4.8133545V31.5078125z
	 M16.836853,37.8115234c-0.0308838-0.3365479-0.0497437-0.6768799-0.0497437-1.0205078
	c0-3.484375,1.6308594-6.5400391,3.4892578-6.5400391c1.859375,0,3.4902344,3.0556641,3.4902344,6.5400391
	c0,0.3436279-0.0188599,0.68396-0.0497437,1.0205078H16.836853z M66,65.9814453H4V39.8115234h62V65.9814453z" fill="#821250" class="svgShape color000000-0 selectable"></path><path d="M54.9960938,47.5195312H15.0039062c-0.5527344,0-1,0.4472656-1,1v8.7529297c0,0.5527344,0.4472656,1,1,1h39.9921875
	c0.5527344,0,1-0.4472656,1-1v-8.7529297C55.9960938,47.9667969,55.5488281,47.5195312,54.9960938,47.5195312z
	 M53.9960938,56.2724609H16.0039062v-6.7529297h37.9921875V56.2724609z" fill="#821250" class="svgShape color000000-1 selectable"></path></svg></g></svg>