<svg id="SvgjsSvg1011" width="288" height="288" xmlns="http://www.w3.org/2000/svg" version="1.1" xmlns:xlink="http://www.w3.org/1999/xlink" xmlns:svgjs="http://svgjs.com/svgjs"><defs id="SvgjsDefs1012"></defs><g id="SvgjsG1013"><svg xmlns="http://www.w3.org/2000/svg" viewBox="0 0 64 64" width="288" height="288"><defs><linearGradient id="a" x1="2" x2="62" y1="32" y2="32" gradientUnits="userSpaceOnUse"><stop offset="0" stop-color="#ffffff" class="svgShape stopColor0c90f2-2"></stop><stop offset=".14" stop-color="#ffffff" class="svgShape stopColor1092f2-3"></stop><stop offset=".27" stop-color="#ffffff" class="svgShape stopColor1c97f1-4"></stop><stop offset=".4" stop-color="#ffffff" class="svgShape stopColor2f9ff1-5"></stop><stop offset=".53" stop-color="#ffffff" class="svgShape stopColor4babf0-6"></stop><stop offset=".66" stop-color="#ffffff" class="svgShape stopColor6ebbee-7"></stop><stop offset=".78" stop-color="#ffffff" class="svgShape stopColor99ceed-8"></stop><stop offset=".85" stop-color="#ffffff" class="svgShape stopColorb3d9ec-9"></stop></linearGradient></defs><g><path fill="url(#a)" d="M61.9,25.1a2,2,0,0,0-1.61-1.36L42,21.07,33.79,4.49a2,2,0,0,0-3.59,0L22,21.07,3.71,23.73A2,2,0,0,0,2.6,27.15L15.85,40.06,12.72,58.29a2,2,0,0,0,2.9,2.11L32,51.79,48.37,60.4a2,2,0,0,0,2.9-2.11L48.15,40.06,61.4,27.15A2,2,0,0,0,61.9,25.1Z" class="svgShape colorgradient-11 selectable"></path><path d="M61.9,25.1a2,2,0,0,0-1.61-1.36L42,21.07,33.79,4.49a2,2,0,0,0-3.59,0L22,21.07,3.71,23.73A2,2,0,0,0,2.6,27.15L15.85,40.06,12.72,58.29a2,2,0,0,0,2.9,2.11L32,51.79,48.37,60.4a2,2,0,0,0,2.9-2.11L48.15,40.06,61.4,27.15A2,2,0,0,0,61.9,25.1ZM44.6,37.93A2,2,0,0,0,44,39.7L46.65,55,32.93,47.76a2,2,0,0,0-1.86,0L17.35,55,20,39.7a2,2,0,0,0-.58-1.77L8.3,27.11l15.34-2.23a2,2,0,0,0,1.51-1.09L32,9.89l6.86,13.9a2,2,0,0,0,1.51,1.09L55.7,27.11Z" fill="#821250" class="svgShape color000000-12 selectable"></path></g></svg></g></svg>