<svg xmlns="http://www.w3.org/2000/svg" width="33" height="30" fill="none" viewBox="0 0 33 30"><g clip-path="url(#a)"><path fill="#a3a380" d="m18.13 5.32-2.094-1.453L14.914.293h-1.102l1.212 3.879-2.436 4.969h1.16l2.004-4.16 2.514 1.488m-8.192 5.554c-.129-.052-3.203-1.382-4.08-4.904-.316-1.26-.064-2.344.683-2.97a2.17 2.17 0 0 1 1.992-.41c.87.245 1.508.954 1.753 1.945.135.545.122 1.037-.032 1.423-.161.405-.484.68-.877.756-.664.135-1.482-.322-1.766-1.465l.883-.181c.155.627.503.879.69.844.09-.018.174-.106.225-.24.097-.235.097-.575 0-.962-.174-.697-.586-1.183-1.134-1.341-.4-.112-.806-.03-1.115.228-.503.422-.657 1.219-.419 2.186.774 3.117 3.551 4.33 3.577 4.341z"/><path fill="#821250" stroke="#fff" stroke-width=".2" d="M20.864 12.287c2.09 0 3.767 1.538 3.767 3.416s-1.678 3.416-3.768 3.416-3.767-1.538-3.767-3.416 1.678-3.416 3.767-3.416Z"/><path fill="#821250" d="M8.295 20.742c2.136 0 3.867-1.574 3.867-3.515s-1.731-3.516-3.867-3.516-3.867 1.574-3.867 3.516 1.731 3.515 3.867 3.515"/><path fill="#821250" stroke="#fff" stroke-width=".2" d="M17.448 17.678c2.09 0 3.767 1.538 3.767 3.416s-1.678 3.416-3.767 3.416-3.768-1.539-3.768-3.416 1.678-3.416 3.768-3.416Z"/><path fill="#821250" stroke="#fff" stroke-width=".2" d="M14.418 22.775c2.09 0 3.768 1.539 3.768 3.416s-1.678 3.416-3.768 3.416-3.767-1.538-3.767-3.416 1.678-3.416 3.767-3.416Zm4.383-16.171c2.09 0 3.768 1.538 3.768 3.416s-1.678 3.415-3.768 3.415-3.768-1.538-3.768-3.415 1.678-3.416 3.768-3.416Z"/><path fill="#821250" stroke="#fff" stroke-width=".2" d="M13.13 8.303c2.089 0 3.767 1.538 3.767 3.416s-1.678 3.416-3.768 3.416-3.767-1.539-3.767-3.416 1.677-3.416 3.767-3.416Z"/><path fill="#821250" d="M11.782 11.725c.712 0 1.289-.525 1.289-1.172s-.577-1.172-1.289-1.172-1.29.525-1.29 1.172.578 1.172 1.29 1.172"/><path fill="#a3a380" d="M18.13 5.32c.284 4.16 2.456 5.836 2.456 5.836l.503-1.136c1.444 2.302 4.248 2.144 4.248 2.144l-.452-1.037c1.992.135 3.635-.275 3.635-.275-.341-1.26-.76-2.285-1.237-3.123h1.237c-1.379-2.403-4.718-3.1-4.718-3.1l1.25-.973c-3.995-.1-6.921 1.664-6.921 1.664"/><path fill="#a3a380" d="M27.29 7.735c.476.837.895 1.863 1.237 3.123 0 0-3.306-4.073-10.396-5.538 0 0 2.926-1.77 6.928-1.658l-1.25.973s3.345.697 4.718 3.1z"/><path fill="#a3a380" d="m26.364 7.088.112.577-1.936.31-.112-.577zm-4.701-.986 1.342 2.19-.563.286L21.1 6.387z"/><path fill="#a3a380" d="M25.872 8.924c-1.547-1.096-4.158-2.567-7.812-3.317l.142-.574c3.77.774 6.464 2.291 8.063 3.428z"/><path fill="#821250" stroke="#fff" stroke-width=".2" d="M14.16 12.756c2.09 0 3.768 1.538 3.768 3.416s-1.678 3.416-3.768 3.416-3.767-1.539-3.767-3.416 1.678-3.416 3.767-3.416Z"/><path fill="#821250" d="M13.071 16.178c.712 0 1.29-.525 1.29-1.172s-.578-1.172-1.29-1.172-1.289.525-1.289 1.172.577 1.172 1.289 1.172m-6.51 1.172c.712 0 1.29-.525 1.29-1.172 0-.648-.578-1.172-1.29-1.172s-1.289.524-1.289 1.172.577 1.172 1.29 1.172"/><path fill="#821250" stroke="#fff" stroke-width=".2" d="M11.26 18.44c2.09 0 3.768 1.538 3.768 3.415s-1.678 3.416-3.768 3.416-3.768-1.538-3.768-3.416S9.17 18.44 11.26 18.44Z"/><path fill="#821250" d="M9.977 21.92c.712 0 1.29-.525 1.29-1.172s-.578-1.172-1.29-1.172-1.289.525-1.289 1.172.577 1.172 1.29 1.172"/></g><defs><clipPath id="a"><path fill="#fff" d="M0 0h33v30H0z"/></clipPath></defs></svg>