<svg id="SvgjsSvg1025" width="288" height="288" xmlns="http://www.w3.org/2000/svg" version="1.1" xmlns:xlink="http://www.w3.org/1999/xlink" xmlns:svgjs="http://svgjs.com/svgjs"><defs id="SvgjsDefs1026"></defs><g id="SvgjsG1027"><svg xmlns="http://www.w3.org/2000/svg" fill-rule="evenodd" stroke-linejoin="round" stroke-miterlimit="2" clip-rule="evenodd" viewBox="0 0 24 24" width="288" height="288"><path d="M17.504 10.644V4.5a1.75 1.75 0 0 0-1.75-1.75h-11a1.75 1.75 0 0 0-1.75 1.75v16a1.75 1.75 0 0 0 1.75 1.75h11a1.746 1.746 0 0 0 1.75-1.75v-6.144a.75.75 0 0 0-1.5 0V20.5a.25.25 0 0 1-.25.25h-11a.252.252 0 0 1-.25-.25v-16a.252.252 0 0 1 .25-.25h11a.249.249 0 0 1 .25.25v6.144a.75.75 0 0 0 1.5 0Z" fill="#fcfcfd" class="svgShape color000000-0 selectable"></path><path d="M7.004 4.5v-2a.75.75 0 0 0-1.5 0v2a.75.75 0 0 0 1.5 0zm4 0v-2a.75.75 0 0 0-1.5 0v2a.75.75 0 0 0 1.5 0zm4 0v-2a.75.75 0 0 0-1.5 0v2a.75.75 0 0 0 1.5 0zm2.471 4.363-6.497 6.497a.728.728 0 0 0-.152.22l-1.547 3.403a.751.751 0 0 0 .993.993l3.403-1.547a.744.744 0 0 0 .22-.153l6.497-6.496a2.067 2.067 0 0 0 0-2.917h-.001a2.061 2.061 0 0 0-2.916 0zm1.061 1.06a.562.562 0 0 1 .794 0l.001.001a.563.563 0 0 1 0 .795L12.93 17.12l-1.458.663.663-1.459 6.401-6.401zM7.381 8.75h5a.75.75 0 0 0 0-1.5h-5a.75.75 0 0 0 0 1.5zm0 4h5a.75.75 0 0 0 0-1.5h-5a.75.75 0 0 0 0 1.5z" fill="#fcfcfd" class="svgShape color000000-1 selectable"></path></svg></g></svg>