<svg xmlns="http://www.w3.org/2000/svg" viewBox="0 0 32 32" id="Profil">
  <path d="M29.36,14.96c.72-2.21-.06-4.62-1.94-5.98-.58-.42-1-1-1.22-1.68-.72-2.21-2.76-3.7-5.09-3.7-.71,0-1.39-.22-1.97-.64-1.88-1.37-4.41-1.37-6.29,0-.58,.42-1.26,.64-1.97,.64-2.32,0-4.37,1.49-5.09,3.7-.22,.68-.64,1.26-1.22,1.68-1.88,1.37-2.66,3.77-1.94,5.98,.22,.68,.22,1.39,0,2.07-.72,2.21,.06,4.62,1.94,5.98,.58,.42,1,1,1.22,1.68,.72,2.21,2.76,3.7,5.09,3.7,.71,0,1.39,.22,1.97,.64,1.88,1.37,4.41,1.37,6.29,0,.58-.42,1.26-.64,1.97-.64,2.32,0,4.37-1.49,5.09-3.7,.22-.68,.64-1.26,1.22-1.67,1.88-1.37,2.66-3.77,1.94-5.98-.22-.68-.22-1.39,0-2.07Zm-11.39,12.45c-1.18,.86-2.76,.86-3.94,0-.92-.67-2.01-1.02-3.15-1.02-.67,0-1.29-.2-1.82-.55,.86-7.84,13.05-7.84,13.87,0-.53,.34-1.15,.55-1.82,.55-1.14,0-2.22,.35-3.15,1.02Zm-1.97-10.48c-3.23-.08-3.23-4.81,0-4.9,3.23,.08,3.23,4.81,0,4.9Zm11.46,.72c.45,1.38-.04,2.89-1.22,3.75-.79,.58-1.39,1.35-1.76,2.24-.96-2.72-3.25-4.77-6.11-5.4,3.72-2.32,2.06-8.2-2.38-8.2-4.44,0-6.09,5.88-2.37,8.2-2.75,.58-5.2,2.74-6.11,5.41-.38-.9-.97-1.67-1.77-2.25-1.18-.86-1.67-2.36-1.22-3.75,.35-1.08,.35-2.23,0-3.31-.45-1.38,.04-2.89,1.22-3.75,.92-.67,1.59-1.59,1.94-2.68,.45-1.38,1.73-2.31,3.19-2.31,1.14,0,2.22-.35,3.15-1.02,1.18-.86,2.76-.86,3.94,0,.92,.67,2.01,1.02,3.15,1.02,1.46,0,2.74,.93,3.19,2.31,.35,1.08,1.02,2.01,1.94,2.68,1.18,.86,1.67,2.36,1.22,3.75-.35,1.08-.35,2.23,0,3.31Z" fill="#821250" class="color000000 svgShape"></path>
</svg>
