<svg xmlns="http://www.w3.org/2000/svg" viewBox="0 0 24 24" fill="currentColor">
  <path d="M12 2C11.45 2 11 2.45 11 3v1.07C9.85 4.27 9 5.24 9 6.4c0 .67.27 1.27.71 1.71C9.27 8.54 9 9.14 9 9.8c0 .67.27 1.27.71 1.71C9.27 11.94 9 12.54 9 13.2c0 1.16.85 2.13 2 2.33v4.47c0 .55.45 1 1 1s1-.45 1-1v-4.47c1.15-.2 2-1.17 2-2.33 0-.66-.27-1.26-.71-1.69.44-.44.71-1.04.71-1.71 0-.66-.27-1.26-.71-1.69.44-.44.71-1.04.71-1.71 0-1.16-.85-2.13-2-2.33V3c0-.55-.45-1-1-1zm-4 8c-.55 0-1 .45-1 1s.45 1 1 1 1-.45 1-1-.45-1-1-1zm8 0c-.55 0-1 .45-1 1s.45 1 1 1 1-.45 1-1-.45-1-1-1zm-4 4c-.55 0-1 .45-1 1s.45 1 1 1 1-.45 1-1-.45-1-1-1z"/>
</svg>
