<svg xmlns="http://www.w3.org/2000/svg" xml:space="preserve" fill-rule="evenodd" clip-rule="evenodd" image-rendering="optimizeQuality" shape-rendering="geometricPrecision" text-rendering="geometricPrecision" viewBox="0 0 4335 4335" id="search">
  <path d="M610 646c584-601 1544-614 2145-30 525 510 601 1307 223 1901l1150 1118c122 118 125 315 6 437-118 122-315 125-437 6L2547 2960c-583 395-1382 341-1907-169C39 2207 26 1247 610 646zm318 310c413-425 1092-434 1517-21s434 1092 21 1517-1092 434-1517 21-434-1092-21-1517z" fill="#821250" class="color000000 svgShape"></path>
</svg>
